<mxfile host="Electron" agent="Mozilla/5.0 (X11; Linux x86_64) AppleWebKit/537.36 (KHTML, like Gecko) draw.io/26.1.1 Chrome/132.0.6834.210 Electron/34.3.3 Safari/537.36" version="26.1.1">
  <diagram name="Page-1" id="03018318-947c-dd8e-b7a3-06fadd420f32">
    <mxGraphModel dx="3490" dy="1463" grid="1" gridSize="10" guides="1" tooltips="1" connect="1" arrows="1" fold="1" page="1" pageScale="1" pageWidth="1100" pageHeight="850" background="#ffffff" math="0" shadow="0">
      <root>
        <mxCell id="0" />
        <mxCell id="1" parent="0" />
        <mxCell id="P_YrPQooRFVnnNei9Mit-43" value="" style="strokeWidth=1;shadow=0;dashed=0;align=center;html=1;shape=mxgraph.mockup.containers.browserWindow;rSize=0;strokeColor=#666666;strokeColor2=#008cff;strokeColor3=#c4c4c4;mainText=,;recursiveResize=0;gradientColor=default;fillColor=default;" parent="1" vertex="1">
          <mxGeometry x="-790" y="40" width="480" height="2680" as="geometry" />
        </mxCell>
        <mxCell id="P_YrPQooRFVnnNei9Mit-44" value="&lt;font style=&quot;font-size: 11px;&quot;&gt;Terrifier Terror Park&lt;/font&gt;" style="strokeWidth=1;shadow=0;dashed=0;align=center;html=1;shape=mxgraph.mockup.containers.anchor;fontSize=17;fontColor=#666666;align=left;whiteSpace=wrap;spacingBottom=-12;" parent="P_YrPQooRFVnnNei9Mit-43" vertex="1">
          <mxGeometry x="60" y="12" width="100" height="18" as="geometry" />
        </mxCell>
        <mxCell id="P_YrPQooRFVnnNei9Mit-45" value="https://kic8462852b.github.io/M04-UF1-PR01/" style="strokeWidth=1;shadow=0;dashed=0;align=center;html=1;shape=mxgraph.mockup.containers.anchor;rSize=0;fontSize=17;fontColor=#666666;align=left;" parent="P_YrPQooRFVnnNei9Mit-43" vertex="1">
          <mxGeometry x="120" y="60" width="340" height="26" as="geometry" />
        </mxCell>
        <mxCell id="P_YrPQooRFVnnNei9Mit-48" value="" style="strokeWidth=1;shadow=0;dashed=0;align=center;html=1;shape=mxgraph.mockup.forms.anchor;align=right;spacingRight=2;fontColor=#666666;" parent="P_YrPQooRFVnnNei9Mit-43" vertex="1">
          <mxGeometry x="230" y="495" width="50" height="18" as="geometry" />
        </mxCell>
        <mxCell id="P_YrPQooRFVnnNei9Mit-50" value="" style="strokeWidth=1;shadow=0;dashed=0;align=center;html=1;shape=mxgraph.mockup.forms.anchor;align=right;spacingRight=2;fontColor=#666666;" parent="P_YrPQooRFVnnNei9Mit-43" vertex="1">
          <mxGeometry x="230" y="530" width="50" height="18" as="geometry" />
        </mxCell>
        <mxCell id="P_YrPQooRFVnnNei9Mit-52" value="" style="strokeWidth=1;shadow=0;dashed=0;align=center;html=1;shape=mxgraph.mockup.forms.anchor;align=right;spacingRight=2;fontColor=#666666;" parent="P_YrPQooRFVnnNei9Mit-43" vertex="1">
          <mxGeometry x="230" y="565" width="50" height="18" as="geometry" />
        </mxCell>
        <mxCell id="P_YrPQooRFVnnNei9Mit-54" value="" style="strokeWidth=1;shadow=0;dashed=0;align=center;html=1;shape=mxgraph.mockup.forms.anchor;align=right;spacingRight=2;fontColor=#666666;" parent="P_YrPQooRFVnnNei9Mit-43" vertex="1">
          <mxGeometry x="230" y="600" width="50" height="18" as="geometry" />
        </mxCell>
        <mxCell id="P_YrPQooRFVnnNei9Mit-107" value="" style="verticalLabelPosition=bottom;shadow=0;dashed=0;align=center;html=1;verticalAlign=top;strokeWidth=1;shape=mxgraph.mockup.containers.videoPlayer;strokeColor=#666666;strokeColor2=#008cff;strokeColor3=#c4c4c4;textColor=#666666;fillColor2=#008cff;barHeight=30;barPos=20;" parent="P_YrPQooRFVnnNei9Mit-43" vertex="1">
          <mxGeometry x="5" y="477" width="460" height="264" as="geometry" />
        </mxCell>
        <mxCell id="iEJvDpS68jFy7bRB699J-30" value="" style="group" parent="P_YrPQooRFVnnNei9Mit-43" vertex="1" connectable="0">
          <mxGeometry y="96" width="470" height="400" as="geometry" />
        </mxCell>
        <mxCell id="iEJvDpS68jFy7bRB699J-31" value="" style="group" parent="iEJvDpS68jFy7bRB699J-30" vertex="1" connectable="0">
          <mxGeometry width="470" height="400" as="geometry" />
        </mxCell>
        <mxCell id="iEJvDpS68jFy7bRB699J-4" value="" style="verticalLabelPosition=bottom;shadow=0;dashed=0;align=center;html=1;verticalAlign=top;strokeWidth=1;shape=mxgraph.mockup.markup.line;strokeColor=#999999;" parent="iEJvDpS68jFy7bRB699J-31" vertex="1">
          <mxGeometry x="4.607843137254902" width="460.78431372549016" height="50" as="geometry" />
        </mxCell>
        <mxCell id="iEJvDpS68jFy7bRB699J-6" value="" style="verticalLabelPosition=bottom;shadow=0;dashed=0;align=center;html=1;verticalAlign=top;strokeWidth=1;shape=mxgraph.mockup.markup.line;strokeColor=#999999;direction=north;" parent="iEJvDpS68jFy7bRB699J-31" vertex="1">
          <mxGeometry y="25" width="9.215686274509803" height="350" as="geometry" />
        </mxCell>
        <mxCell id="iEJvDpS68jFy7bRB699J-7" value="" style="verticalLabelPosition=bottom;shadow=0;dashed=0;align=center;html=1;verticalAlign=top;strokeWidth=1;shape=mxgraph.mockup.markup.line;strokeColor=#999999;" parent="iEJvDpS68jFy7bRB699J-31" vertex="1">
          <mxGeometry x="4.607843137254902" y="350" width="460.78431372549016" height="50" as="geometry" />
        </mxCell>
        <mxCell id="iEJvDpS68jFy7bRB699J-29" value="" style="verticalLabelPosition=bottom;shadow=0;dashed=0;align=center;html=1;verticalAlign=top;strokeWidth=1;shape=mxgraph.mockup.markup.line;strokeColor=#999999;direction=north;" parent="iEJvDpS68jFy7bRB699J-31" vertex="1">
          <mxGeometry x="460.78431372549016" y="25" width="9.215686274509803" height="350" as="geometry" />
        </mxCell>
        <mxCell id="P_YrPQooRFVnnNei9Mit-57" value="" style="verticalLabelPosition=bottom;shadow=0;dashed=0;align=center;html=1;verticalAlign=top;strokeWidth=1;shape=mxgraph.mockup.graphics.simpleIcon;strokeColor=#999999;movable=1;resizable=1;rotatable=1;deletable=1;editable=1;locked=0;connectable=1;" parent="iEJvDpS68jFy7bRB699J-31" vertex="1">
          <mxGeometry x="170" y="32.78" width="110" height="90" as="geometry" />
        </mxCell>
        <mxCell id="P_YrPQooRFVnnNei9Mit-88" value="&lt;font style=&quot;font-size: 25px;&quot;&gt;LOGO&lt;/font&gt;" style="text;html=1;align=center;verticalAlign=middle;whiteSpace=wrap;rounded=0;movable=1;resizable=1;rotatable=1;deletable=1;editable=1;locked=0;connectable=1;" parent="iEJvDpS68jFy7bRB699J-31" vertex="1">
          <mxGeometry x="180" y="44.44444444444446" width="90" height="66.66666666666667" as="geometry" />
        </mxCell>
        <mxCell id="iEJvDpS68jFy7bRB699J-41" value="TICKETS" style="text;strokeColor=none;fillColor=none;html=1;fontSize=24;fontStyle=1;verticalAlign=middle;align=center;" parent="P_YrPQooRFVnnNei9Mit-43" vertex="1">
          <mxGeometry x="170" y="790" width="100" height="40" as="geometry" />
        </mxCell>
        <mxCell id="iEJvDpS68jFy7bRB699J-45" value="" style="verticalLabelPosition=bottom;shadow=0;dashed=0;align=center;html=1;verticalAlign=top;strokeWidth=1;shape=mxgraph.mockup.graphics.simpleIcon;strokeColor=#999999;fillColor=#CCCCCC;" parent="P_YrPQooRFVnnNei9Mit-43" vertex="1">
          <mxGeometry x="150" y="850" width="140" height="160" as="geometry" />
        </mxCell>
        <mxCell id="iEJvDpS68jFy7bRB699J-49" value="" style="group" parent="P_YrPQooRFVnnNei9Mit-43" vertex="1" connectable="0">
          <mxGeometry x="20" y="1410" width="440" height="440" as="geometry" />
        </mxCell>
        <mxCell id="iEJvDpS68jFy7bRB699J-50" value="" style="verticalLabelPosition=bottom;shadow=0;dashed=0;align=center;html=1;verticalAlign=top;strokeWidth=1;shape=mxgraph.mockup.markup.line;strokeColor=#999999;" parent="iEJvDpS68jFy7bRB699J-49" vertex="1">
          <mxGeometry x="4.313725490196077" width="431.37254901960785" height="23.157894736842103" as="geometry" />
        </mxCell>
        <mxCell id="iEJvDpS68jFy7bRB699J-51" value="" style="verticalLabelPosition=bottom;shadow=0;dashed=0;align=center;html=1;verticalAlign=top;strokeWidth=1;shape=mxgraph.mockup.markup.line;strokeColor=#999999;" parent="iEJvDpS68jFy7bRB699J-49" vertex="1">
          <mxGeometry x="4.313725490196077" y="416.8421052631578" width="431.37254901960785" height="23.157894736842103" as="geometry" />
        </mxCell>
        <mxCell id="iEJvDpS68jFy7bRB699J-52" value="" style="verticalLabelPosition=bottom;shadow=0;dashed=0;align=center;html=1;verticalAlign=top;strokeWidth=1;shape=mxgraph.mockup.markup.line;strokeColor=#999999;direction=north;" parent="iEJvDpS68jFy7bRB699J-49" vertex="1">
          <mxGeometry x="431.37254901960785" y="11.578947368421051" width="8.627450980392155" height="416.8421052631578" as="geometry" />
        </mxCell>
        <mxCell id="iEJvDpS68jFy7bRB699J-53" value="" style="verticalLabelPosition=bottom;shadow=0;dashed=0;align=center;html=1;verticalAlign=top;strokeWidth=1;shape=mxgraph.mockup.markup.line;strokeColor=#999999;direction=north;" parent="iEJvDpS68jFy7bRB699J-49" vertex="1">
          <mxGeometry y="11.578947368421051" width="8.627450980392155" height="416.8421052631578" as="geometry" />
        </mxCell>
        <mxCell id="iEJvDpS68jFy7bRB699J-102" value="ATRACCIONES" style="text;strokeColor=none;fillColor=none;html=1;fontSize=24;fontStyle=1;verticalAlign=middle;align=center;" parent="iEJvDpS68jFy7bRB699J-49" vertex="1">
          <mxGeometry x="149.78906967042138" y="18.332690058479525" width="116.47058823529412" height="57.89473684210525" as="geometry" />
        </mxCell>
        <mxCell id="iEJvDpS68jFy7bRB699J-54" value="" style="verticalLabelPosition=bottom;shadow=0;dashed=0;align=center;html=1;verticalAlign=top;strokeWidth=1;shape=mxgraph.mockup.graphics.simpleIcon;strokeColor=#999999;fillColor=#F19C99;" parent="iEJvDpS68jFy7bRB699J-49" vertex="1">
          <mxGeometry x="149.7872340425532" y="61.11111111111111" width="121.70212765957447" height="67.22222222222221" as="geometry" />
        </mxCell>
        <mxCell id="SN7SCqHl3AGAayr5xn-d-13" value="" style="verticalLabelPosition=bottom;shadow=0;dashed=0;align=center;html=1;verticalAlign=top;strokeWidth=1;shape=mxgraph.mockup.graphics.simpleIcon;strokeColor=#999999;fillColor=#F19C99;" parent="iEJvDpS68jFy7bRB699J-49" vertex="1">
          <mxGeometry x="149.7872340425532" y="281.1111111111111" width="121.70212765957447" height="67.22222222222221" as="geometry" />
        </mxCell>
        <mxCell id="iEJvDpS68jFy7bRB699J-103" value="" style="group" parent="P_YrPQooRFVnnNei9Mit-43" vertex="1" connectable="0">
          <mxGeometry y="2120" width="470" height="380" as="geometry" />
        </mxCell>
        <mxCell id="iEJvDpS68jFy7bRB699J-104" value="" style="verticalLabelPosition=bottom;shadow=0;dashed=0;align=center;html=1;verticalAlign=top;strokeWidth=1;shape=mxgraph.mockup.markup.line;strokeColor=#999999;" parent="iEJvDpS68jFy7bRB699J-103" vertex="1">
          <mxGeometry x="4.607843137254902" width="460.7843137254902" height="20" as="geometry" />
        </mxCell>
        <mxCell id="iEJvDpS68jFy7bRB699J-105" value="" style="verticalLabelPosition=bottom;shadow=0;dashed=0;align=center;html=1;verticalAlign=top;strokeWidth=1;shape=mxgraph.mockup.markup.line;strokeColor=#999999;" parent="iEJvDpS68jFy7bRB699J-103" vertex="1">
          <mxGeometry x="4.607843137254902" y="360" width="460.7843137254902" height="20" as="geometry" />
        </mxCell>
        <mxCell id="iEJvDpS68jFy7bRB699J-106" value="" style="verticalLabelPosition=bottom;shadow=0;dashed=0;align=center;html=1;verticalAlign=top;strokeWidth=1;shape=mxgraph.mockup.markup.line;strokeColor=#999999;direction=north;" parent="iEJvDpS68jFy7bRB699J-103" vertex="1">
          <mxGeometry x="460.7843137254902" y="10" width="9.215686274509803" height="360" as="geometry" />
        </mxCell>
        <mxCell id="iEJvDpS68jFy7bRB699J-107" value="" style="verticalLabelPosition=bottom;shadow=0;dashed=0;align=center;html=1;verticalAlign=top;strokeWidth=1;shape=mxgraph.mockup.markup.line;strokeColor=#999999;direction=north;" parent="iEJvDpS68jFy7bRB699J-103" vertex="1">
          <mxGeometry y="10" width="9.215686274509803" height="360" as="geometry" />
        </mxCell>
        <mxCell id="iEJvDpS68jFy7bRB699J-108" value="CONTACTO" style="text;strokeColor=none;fillColor=none;html=1;fontSize=24;fontStyle=1;verticalAlign=middle;align=center;" parent="P_YrPQooRFVnnNei9Mit-43" vertex="1">
          <mxGeometry x="90" y="2170" width="270" height="50" as="geometry" />
        </mxCell>
        <mxCell id="iEJvDpS68jFy7bRB699J-115" value="" style="strokeWidth=1;shadow=0;dashed=0;align=center;html=1;shape=mxgraph.mockup.forms.anchor;align=right;spacingRight=2;fontColor=#666666;" parent="P_YrPQooRFVnnNei9Mit-43" vertex="1">
          <mxGeometry x="310" y="1978" width="51.25" height="16.8" as="geometry" />
        </mxCell>
        <mxCell id="iEJvDpS68jFy7bRB699J-117" value="" style="strokeWidth=1;shadow=0;dashed=0;align=center;html=1;shape=mxgraph.mockup.forms.anchor;align=right;spacingRight=2;fontColor=#666666;" parent="P_YrPQooRFVnnNei9Mit-43" vertex="1">
          <mxGeometry x="310" y="2010.6666666666667" width="51.25" height="16.8" as="geometry" />
        </mxCell>
        <mxCell id="iEJvDpS68jFy7bRB699J-129" value="" style="group" parent="P_YrPQooRFVnnNei9Mit-43" vertex="1" connectable="0">
          <mxGeometry x="140" y="2250" width="190" height="216.67" as="geometry" />
        </mxCell>
        <mxCell id="iEJvDpS68jFy7bRB699J-109" value="Nombre" style="strokeWidth=1;shadow=0;dashed=0;align=center;html=1;shape=mxgraph.mockup.forms.anchor;align=right;spacingRight=2;fontColor=#666666;" parent="iEJvDpS68jFy7bRB699J-129" vertex="1">
          <mxGeometry width="23.749999999999996" height="16.799999999999994" as="geometry" />
        </mxCell>
        <mxCell id="iEJvDpS68jFy7bRB699J-110" value="John Doe" style="strokeWidth=1;shadow=0;dashed=0;align=center;html=1;shape=mxgraph.mockup.forms.rrect;fillColor=#ffffff;rSize=0;fontColor=#666666;align=left;spacingLeft=3;strokeColor=#999999;" parent="iEJvDpS68jFy7bRB699J-129" vertex="1">
          <mxGeometry x="23.749999999999996" width="166.25" height="16.799999999999994" as="geometry" />
        </mxCell>
        <mxCell id="iEJvDpS68jFy7bRB699J-111" value="Email" style="strokeWidth=1;shadow=0;dashed=0;align=center;html=1;shape=mxgraph.mockup.forms.anchor;align=right;spacingRight=2;fontColor=#666666;" parent="iEJvDpS68jFy7bRB699J-129" vertex="1">
          <mxGeometry y="32.66666666666673" width="23.749999999999996" height="16.799999999999994" as="geometry" />
        </mxCell>
        <mxCell id="iEJvDpS68jFy7bRB699J-112" value="john@jgraph.com" style="strokeWidth=1;shadow=0;dashed=0;align=center;html=1;shape=mxgraph.mockup.forms.rrect;fillColor=#ffffff;rSize=0;fontColor=#666666;align=left;spacingLeft=3;strokeColor=#999999;" parent="iEJvDpS68jFy7bRB699J-129" vertex="1">
          <mxGeometry x="23.749999999999996" y="32.66666666666673" width="166.25" height="16.799999999999994" as="geometry" />
        </mxCell>
        <mxCell id="iEJvDpS68jFy7bRB699J-113" value="Motivo" style="strokeWidth=1;shadow=0;dashed=0;align=center;html=1;shape=mxgraph.mockup.forms.anchor;align=right;spacingRight=2;fontColor=#666666;" parent="iEJvDpS68jFy7bRB699J-129" vertex="1">
          <mxGeometry y="65.33333333333323" width="23.749999999999996" height="16.799999999999994" as="geometry" />
        </mxCell>
        <mxCell id="iEJvDpS68jFy7bRB699J-114" value="Selecciona motivo" style="strokeWidth=1;shadow=0;dashed=0;align=center;html=1;shape=mxgraph.mockup.forms.rrect;fillColor=#ffffff;rSize=0;fontColor=#666666;align=left;spacingLeft=3;strokeColor=#999999;" parent="iEJvDpS68jFy7bRB699J-129" vertex="1">
          <mxGeometry x="23.749999999999996" y="65.33333333333323" width="166.25" height="16.799999999999994" as="geometry" />
        </mxCell>
        <mxCell id="iEJvDpS68jFy7bRB699J-119" value="Escriba el mensaje.." style="strokeWidth=1;shadow=0;dashed=0;align=center;html=1;shape=mxgraph.mockup.forms.rrect;fillColor=#ffffff;rSize=0;fontColor=#666666;align=left;spacingLeft=3;strokeColor=#999999;verticalAlign=top;whiteSpace=wrap;" parent="iEJvDpS68jFy7bRB699J-129" vertex="1">
          <mxGeometry y="100.00333333333329" width="189.99999999999997" height="116.66666666666661" as="geometry" />
        </mxCell>
        <mxCell id="SN7SCqHl3AGAayr5xn-d-1" value="" style="group" parent="P_YrPQooRFVnnNei9Mit-43" vertex="1" connectable="0">
          <mxGeometry y="740" width="470" height="690" as="geometry" />
        </mxCell>
        <mxCell id="iEJvDpS68jFy7bRB699J-32" value="" style="verticalLabelPosition=bottom;shadow=0;dashed=0;align=center;html=1;verticalAlign=top;strokeWidth=1;shape=mxgraph.mockup.markup.line;strokeColor=#999999;" parent="SN7SCqHl3AGAayr5xn-d-1" vertex="1">
          <mxGeometry x="4.607843137254902" width="460.78431372549016" height="36.31578947368421" as="geometry" />
        </mxCell>
        <mxCell id="iEJvDpS68jFy7bRB699J-33" value="" style="verticalLabelPosition=bottom;shadow=0;dashed=0;align=center;html=1;verticalAlign=top;strokeWidth=1;shape=mxgraph.mockup.markup.line;strokeColor=#999999;" parent="SN7SCqHl3AGAayr5xn-d-1" vertex="1">
          <mxGeometry x="4.607843137254902" y="653.6842105263157" width="460.78431372549016" height="36.31578947368421" as="geometry" />
        </mxCell>
        <mxCell id="iEJvDpS68jFy7bRB699J-34" value="" style="verticalLabelPosition=bottom;shadow=0;dashed=0;align=center;html=1;verticalAlign=top;strokeWidth=1;shape=mxgraph.mockup.markup.line;strokeColor=#999999;direction=north;" parent="SN7SCqHl3AGAayr5xn-d-1" vertex="1">
          <mxGeometry x="460.78431372549016" y="18.157894736842106" width="9.215686274509803" height="653.6842105263157" as="geometry" />
        </mxCell>
        <mxCell id="iEJvDpS68jFy7bRB699J-47" value="" style="verticalLabelPosition=bottom;shadow=0;dashed=0;align=center;html=1;verticalAlign=top;strokeWidth=1;shape=mxgraph.mockup.markup.line;strokeColor=#999999;direction=north;" parent="SN7SCqHl3AGAayr5xn-d-1" vertex="1">
          <mxGeometry y="18.157894736842106" width="9.215686274509803" height="653.6842105263157" as="geometry" />
        </mxCell>
        <mxCell id="SN7SCqHl3AGAayr5xn-d-9" value="" style="verticalLabelPosition=bottom;shadow=0;dashed=0;align=center;html=1;verticalAlign=top;strokeWidth=1;shape=mxgraph.mockup.graphics.simpleIcon;strokeColor=#999999;fillColor=#CCCCCC;" parent="SN7SCqHl3AGAayr5xn-d-1" vertex="1">
          <mxGeometry x="150" y="280" width="140" height="160" as="geometry" />
        </mxCell>
        <mxCell id="SN7SCqHl3AGAayr5xn-d-2" value="" style="group" parent="P_YrPQooRFVnnNei9Mit-43" vertex="1" connectable="0">
          <mxGeometry x="140" y="520" width="230" height="140" as="geometry" />
        </mxCell>
        <mxCell id="P_YrPQooRFVnnNei9Mit-115" value="" style="html=1;verticalLabelPosition=bottom;align=center;labelBackgroundColor=#ffffff;verticalAlign=top;strokeWidth=2;strokeColor=#0080F0;shadow=0;dashed=0;shape=mxgraph.ios7.icons.video_conversation;" parent="SN7SCqHl3AGAayr5xn-d-2" vertex="1">
          <mxGeometry width="230" height="140" as="geometry" />
        </mxCell>
        <mxCell id="P_YrPQooRFVnnNei9Mit-116" value="VIDEO TERROR PARK TRAILER" style="text;html=1;align=center;verticalAlign=middle;whiteSpace=wrap;rounded=0;" parent="SN7SCqHl3AGAayr5xn-d-2" vertex="1">
          <mxGeometry x="46.71875" y="20.125" width="71.875" height="96.25" as="geometry" />
        </mxCell>
        <mxCell id="P_YrPQooRFVnnNei9Mit-118" style="edgeStyle=orthogonalEdgeStyle;rounded=0;orthogonalLoop=1;jettySize=auto;html=1;exitX=0.5;exitY=1;exitDx=0;exitDy=0;" parent="SN7SCqHl3AGAayr5xn-d-2" source="P_YrPQooRFVnnNei9Mit-116" target="P_YrPQooRFVnnNei9Mit-116" edge="1">
          <mxGeometry relative="1" as="geometry" />
        </mxCell>
        <mxCell id="SN7SCqHl3AGAayr5xn-d-3" value="" style="group" parent="P_YrPQooRFVnnNei9Mit-43" vertex="1" connectable="0">
          <mxGeometry x="4.61" y="2500" width="465.39" height="160" as="geometry" />
        </mxCell>
        <mxCell id="iEJvDpS68jFy7bRB699J-130" value="" style="group" parent="SN7SCqHl3AGAayr5xn-d-3" vertex="1" connectable="0">
          <mxGeometry width="465.38999999999993" height="160" as="geometry" />
        </mxCell>
        <mxCell id="iEJvDpS68jFy7bRB699J-131" value="" style="verticalLabelPosition=bottom;shadow=0;dashed=0;align=center;html=1;verticalAlign=top;strokeWidth=1;shape=mxgraph.mockup.markup.line;strokeColor=#999999;" parent="iEJvDpS68jFy7bRB699J-130" vertex="1">
          <mxGeometry x="4.56264705882353" width="456.2647058823529" height="8.421052631578947" as="geometry" />
        </mxCell>
        <mxCell id="iEJvDpS68jFy7bRB699J-132" value="" style="verticalLabelPosition=bottom;shadow=0;dashed=0;align=center;html=1;verticalAlign=top;strokeWidth=1;shape=mxgraph.mockup.markup.line;strokeColor=#999999;" parent="iEJvDpS68jFy7bRB699J-130" vertex="1">
          <mxGeometry x="4.56264705882353" y="151.57894736842104" width="456.2647058823529" height="8.421052631578947" as="geometry" />
        </mxCell>
        <mxCell id="iEJvDpS68jFy7bRB699J-133" value="" style="verticalLabelPosition=bottom;shadow=0;dashed=0;align=center;html=1;verticalAlign=top;strokeWidth=1;shape=mxgraph.mockup.markup.line;strokeColor=#999999;direction=north;" parent="iEJvDpS68jFy7bRB699J-130" vertex="1">
          <mxGeometry x="456.2647058823529" y="4.2105263157894735" width="9.12529411764706" height="151.57894736842104" as="geometry" />
        </mxCell>
        <mxCell id="iEJvDpS68jFy7bRB699J-134" value="" style="verticalLabelPosition=bottom;shadow=0;dashed=0;align=center;html=1;verticalAlign=top;strokeWidth=1;shape=mxgraph.mockup.markup.line;strokeColor=#999999;direction=north;" parent="iEJvDpS68jFy7bRB699J-130" vertex="1">
          <mxGeometry y="4.2105263157894735" width="9.12529411764706" height="151.57894736842104" as="geometry" />
        </mxCell>
        <mxCell id="iEJvDpS68jFy7bRB699J-135" value="FOOTER" style="text;strokeColor=none;fillColor=none;html=1;fontSize=24;fontStyle=1;verticalAlign=middle;align=center;" parent="iEJvDpS68jFy7bRB699J-130" vertex="1">
          <mxGeometry x="115.38935483870968" y="20" width="203.2258064516129" height="50" as="geometry" />
        </mxCell>
        <mxCell id="SN7SCqHl3AGAayr5xn-d-4" value="" style="swimlane;shape=mxgraph.bootstrap.anchor;strokeColor=#666666;fillColor=#ffffff;fontColor=#666666;fontStyle=0;childLayout=stackLayout;horizontal=1;startSize=0;horizontalStack=0;resizeParent=1;resizeParentMax=0;resizeLast=0;collapsible=0;marginBottom=0;whiteSpace=wrap;html=1;" parent="P_YrPQooRFVnnNei9Mit-43" vertex="1">
          <mxGeometry x="170" y="230" width="100" height="200" as="geometry" />
        </mxCell>
        <mxCell id="SN7SCqHl3AGAayr5xn-d-5" value="Section 1" style="text;strokeColor=#008CFF;align=center;verticalAlign=middle;spacingLeft=10;spacingRight=10;overflow=hidden;points=[[0,0.5],[1,0.5]];portConstraint=eastwest;rotatable=0;whiteSpace=wrap;html=1;shape=mxgraph.mockup.topButton;rSize=10;fillColor=#008CFF;fontColor=#ffffff;fontSize=17;fontStyle=1;" parent="SN7SCqHl3AGAayr5xn-d-4" vertex="1">
          <mxGeometry width="100" height="50" as="geometry" />
        </mxCell>
        <mxCell id="SN7SCqHl3AGAayr5xn-d-6" value="Section 2" style="text;strokeColor=inherit;align=center;verticalAlign=middle;spacingLeft=10;spacingRight=10;overflow=hidden;points=[[0,0.5],[1,0.5]];portConstraint=eastwest;rotatable=0;whiteSpace=wrap;html=1;rSize=5;fillColor=inherit;fontColor=inherit;fontSize=17;fontStyle=1;" parent="SN7SCqHl3AGAayr5xn-d-4" vertex="1">
          <mxGeometry y="50" width="100" height="50" as="geometry" />
        </mxCell>
        <mxCell id="SN7SCqHl3AGAayr5xn-d-7" value="Section 3" style="text;strokeColor=inherit;align=center;verticalAlign=middle;spacingLeft=10;spacingRight=10;overflow=hidden;points=[[0,0.5],[1,0.5]];portConstraint=eastwest;rotatable=0;whiteSpace=wrap;html=1;rSize=5;fillColor=inherit;fontColor=inherit;fontSize=17;fontStyle=1;" parent="SN7SCqHl3AGAayr5xn-d-4" vertex="1">
          <mxGeometry y="100" width="100" height="50" as="geometry" />
        </mxCell>
        <mxCell id="SN7SCqHl3AGAayr5xn-d-8" value="Section 4" style="text;strokeColor=inherit;align=center;verticalAlign=middle;spacingLeft=10;spacingRight=10;overflow=hidden;points=[[0,0.5],[1,0.5]];portConstraint=eastwest;rotatable=0;whiteSpace=wrap;html=1;shape=mxgraph.mockup.bottomButton;rSize=10;fillColor=inherit;fontColor=inherit;fontSize=17;fontStyle=1;" parent="SN7SCqHl3AGAayr5xn-d-4" vertex="1">
          <mxGeometry y="150" width="100" height="50" as="geometry" />
        </mxCell>
        <mxCell id="SN7SCqHl3AGAayr5xn-d-10" value="" style="verticalLabelPosition=bottom;shadow=0;dashed=0;align=center;html=1;verticalAlign=top;strokeWidth=1;shape=mxgraph.mockup.graphics.simpleIcon;strokeColor=#999999;fillColor=#CCCCCC;" parent="P_YrPQooRFVnnNei9Mit-43" vertex="1">
          <mxGeometry x="150" y="1190" width="140" height="160" as="geometry" />
        </mxCell>
        <mxCell id="SN7SCqHl3AGAayr5xn-d-14" value="" style="verticalLabelPosition=bottom;shadow=0;dashed=0;align=center;html=1;verticalAlign=top;strokeWidth=1;shape=mxgraph.mockup.graphics.simpleIcon;strokeColor=#999999;fillColor=#F19C99;" parent="P_YrPQooRFVnnNei9Mit-43" vertex="1">
          <mxGeometry x="160" y="1994.8" width="130" height="110" as="geometry" />
        </mxCell>
      </root>
    </mxGraphModel>
  </diagram>
</mxfile>
